<?xml version="1.0" encoding="utf-8"?>
<!-- Generator: Adobe Illustrator 18.1.1, SVG Export Plug-In . SVG Version: 6.00 Build 0)  -->
<svg version="1.1" id="Pattern" xmlns="http://www.w3.org/2000/svg" xmlns:xlink="http://www.w3.org/1999/xlink" x="0px" y="0px"
	 viewBox="0 0 405.5 406" enable-background="new 0 0 405.5 406" xml:space="preserve">
<polygon points="96,67 107.8,46.6 119.6,67 "/>
<polygon points="260.4,170 266,160.4 271.5,170 "/>
<polygon points="51.5,317.9 41.9,312.4 51.5,306.9 "/>
<polygon points="146.9,406 152.5,396.4 158,406 "/>
<g>
	<path d="M8.3,3L6.5,6.1L4.6,3h3.9 M13.5,0h-14l7,12.1L13.5,0L13.5,0z"/>
</g>
<g>
	<path d="M219.4,296l-1.3,2.2l-1.3-2.2H219.4 M224.6,293h-13l6.5,11.2L224.6,293L224.6,293z"/>
</g>
<circle cx="248.6" cy="42.3" r="8.5"/>
<circle cx="326" cy="400.8" r="4.9"/>
<g>
	<path d="M55.8,121.1c3,0,5.5,2.5,5.5,5.5s-2.5,5.5-5.5,5.5s-5.5-2.5-5.5-5.5S52.8,121.1,55.8,121.1 M55.8,118.1
		c-4.7,0-8.5,3.8-8.5,8.5c0,4.7,3.8,8.5,8.5,8.5c4.7,0,8.5-3.8,8.5-8.5C64.3,121.9,60.5,118.1,55.8,118.1L55.8,118.1z"/>
</g>
<g>
	<path d="M355.6,259.4c1,0,1.9,0.8,1.9,1.9c0,1-0.8,1.9-1.9,1.9s-1.9-0.8-1.9-1.9C353.8,260.2,354.6,259.4,355.6,259.4 M355.6,256.4
		c-2.7,0-4.9,2.2-4.9,4.9s2.2,4.9,4.9,4.9s4.9-2.2,4.9-4.9S358.3,256.4,355.6,256.4L355.6,256.4z"/>
</g>
<g>
	<path d="M107.1,351.8c1,0,1.9,0.8,1.9,1.9s-0.8,1.9-1.9,1.9s-1.9-0.8-1.9-1.9S106.1,351.8,107.1,351.8 M107.1,348.8
		c-2.7,0-4.9,2.2-4.9,4.9s2.2,4.9,4.9,4.9c2.7,0,4.9-2.2,4.9-4.9S109.8,348.8,107.1,348.8L107.1,348.8z"/>
</g>
<g>
	<line fill="none" stroke="#000000" stroke-width="3" stroke-miterlimit="10" x1="333.7" y1="71.4" x2="333.7" y2="86.7"/>
	<line fill="none" stroke="#000000" stroke-width="3" stroke-miterlimit="10" x1="326" y1="79" x2="341.3" y2="79"/>
</g>
<g>
	<line fill="none" stroke="#000000" stroke-width="3" stroke-miterlimit="10" x1="152.2" y1="206.7" x2="169.3" y2="223.8"/>
	<line fill="none" stroke="#000000" stroke-width="3" stroke-miterlimit="10" x1="152.2" y1="223.8" x2="169.3" y2="206.7"/>
</g>
<g>
	<line fill="none" stroke="#000000" stroke-width="3" stroke-miterlimit="10" x1="287.9" y1="220.1" x2="295.3" y2="227.5"/>
	<line fill="none" stroke="#000000" stroke-width="3" stroke-miterlimit="10" x1="287.9" y1="227.5" x2="295.3" y2="220.1"/>
</g>
<g>
	<line fill="none" stroke="#000000" stroke-width="3" stroke-miterlimit="10" x1="309.7" y1="293.5" x2="320.5" y2="304.3"/>
	<line fill="none" stroke="#000000" stroke-width="3" stroke-miterlimit="10" x1="309.7" y1="304.3" x2="320.5" y2="293.5"/>
</g>
<g>
	<line fill="none" stroke="#000000" stroke-width="3" stroke-miterlimit="10" x1="230.8" y1="107.7" x2="241.6" y2="118.5"/>
	<line fill="none" stroke="#000000" stroke-width="3" stroke-miterlimit="10" x1="230.8" y1="118.5" x2="241.6" y2="107.7"/>
</g>
<g>
	<line fill="none" stroke="#000000" stroke-width="3" stroke-miterlimit="10" x1="80.1" y1="162.4" x2="122.3" y2="162.4"/>
	<line fill="none" stroke="#000000" stroke-width="3" stroke-miterlimit="10" x1="80.1" y1="167.2" x2="122.3" y2="167.2"/>
</g>
<g>
	<g>
		<line fill="none" stroke="#000000" stroke-width="3" stroke-miterlimit="10" x1="329.5" y1="118.5" x2="336.8" y2="118.5"/>
		<line fill="none" stroke="#000000" stroke-width="3" stroke-miterlimit="10" x1="329.5" y1="123.3" x2="336.8" y2="123.3"/>
	</g>
	<g>
		<line fill="none" stroke="#000000" stroke-width="3" stroke-miterlimit="10" x1="342" y1="118.5" x2="349.3" y2="118.5"/>
		<line fill="none" stroke="#000000" stroke-width="3" stroke-miterlimit="10" x1="342" y1="123.3" x2="349.3" y2="123.3"/>
	</g>
</g>
<line fill="none" stroke="#000000" stroke-width="3" stroke-miterlimit="10" stroke-dasharray="10,5" x1="212" y1="137.3" x2="260.4" y2="88.8"/>
<path d="M405.5,355.3h-9.4c-0.4-1-1.4-1.7-2.6-1.7s-2.1,0.7-2.6,1.7h-18.3c-0.4-1-1.4-1.7-2.6-1.7s-2.1,0.7-2.6,1.7h-19.2
	c-0.4-1-1.4-1.7-2.6-1.7s-2.1,0.7-2.6,1.7h-10.6v2.4h10.6c0.5,0.9,1.4,1.6,2.5,1.6s2.1-0.6,2.5-1.6h19.3c0.5,0.9,1.4,1.6,2.5,1.6
	c1.1,0,2.1-0.6,2.5-1.6H391c0.5,0.9,1.4,1.6,2.5,1.6s2.1-0.6,2.5-1.6h9.5V355.3z"/>
<g>
	<circle cx="71.1" cy="243.7" r="1.6"/>
	<circle cx="75.4" cy="248" r="1.6"/>
	<circle cx="79.7" cy="252.3" r="1.6"/>
	<circle cx="84" cy="256.6" r="1.6"/>
	<circle cx="88.3" cy="260.9" r="1.6"/>
	<circle cx="92.6" cy="265.2" r="1.6"/>
	<circle cx="96.9" cy="269.5" r="1.6"/>
	<circle cx="101.2" cy="273.8" r="1.6"/>
	<circle cx="105.5" cy="278.1" r="1.6"/>
</g>
<g>
	<circle cx="354.1" cy="19.9" r="1.6"/>
	<circle cx="358.4" cy="24.2" r="1.6"/>
	<circle cx="362.7" cy="28.5" r="1.6"/>
	<circle cx="367" cy="32.8" r="1.6"/>
</g>
</svg>
