<svg id="Pattern" xmlns="http://www.w3.org/2000/svg" viewBox="0 0 405.5 406">
    <g fill="#F5F5F5" stroke="#F5F5F5">
        <path d="M96 67l11.8-20.4L119.6 67zm164.4 103l5.6-9.6 5.5 9.6zM51.5 317.9l-9.6-5.5 9.6-5.5zm95.4 88.1l5.6-9.6 5.5 9.6zM8.3 3L6.5 6.1 4.6 3h3.9m5-3h-14l7 12.1 7-12.1zm205.9 296l-1.3 2.2-1.3-2.2h2.6m5.2-3h-13l6.5 11.2 6.5-11.2z"/>
        <circle cx="248.6" cy="42.3" r="8.5"/>
        <circle cx="326" cy="400.8" r="4.9"/>
        <path d="M55.8 121.1c3 0 5.5 2.5 5.5 5.5s-2.5 5.5-5.5 5.5-5.5-2.5-5.5-5.5 2.5-5.5 5.5-5.5m0-3c-4.7 0-8.5 3.8-8.5 8.5s3.8 8.5 8.5 8.5 8.5-3.8 8.5-8.5-3.8-8.5-8.5-8.5zm299.8 141.3c1 0 1.9.8 1.9 1.9 0 1-.8 1.9-1.9 1.9s-1.9-.8-1.9-1.9c.1-1.1.9-1.9 1.9-1.9m0-3c-2.7 0-4.9 2.2-4.9 4.9s2.2 4.9 4.9 4.9 4.9-2.2 4.9-4.9-2.2-4.9-4.9-4.9zm-248.5 95.4c1 0 1.9.8 1.9 1.9s-.8 1.9-1.9 1.9-1.9-.8-1.9-1.9.9-1.9 1.9-1.9m0-3c-2.7 0-4.9 2.2-4.9 4.9s2.2 4.9 4.9 4.9 4.9-2.2 4.9-4.9-2.2-4.9-4.9-4.9z"/>
        <path d="M333.7 71.4v15.3M326 79h15.3M152.2 206.7l17.1 17.1m-17.1 0l17.1-17.1m118.6 13.4l7.4 7.4m-7.4 0l7.4-7.4m14.4 73.4l10.8 10.8m-10.8 0l10.8-10.8m-89.7-185.8l10.8 10.8m-10.8 0l10.8-10.8M80.1 162.4h42.2m-42.2 4.8h42.2m207.2-48.7h7.3m-7.3 4.8h7.3m5.2-4.8h7.3m-7.3 4.8h7.3"  stroke-width="3" stroke-miterlimit="10"/>
        <path fill="none" stroke-width="3" stroke-miterlimit="10" stroke-dasharray="10,5" d="M212 137.3l48.4-48.5"/>
        <path d="M405.5 355.3h-9.4c-.4-1-1.4-1.7-2.6-1.7s-2.1.7-2.6 1.7h-18.3c-.4-1-1.4-1.7-2.6-1.7s-2.1.7-2.6 1.7h-19.2c-.4-1-1.4-1.7-2.6-1.7s-2.1.7-2.6 1.7h-10.6v2.4H343c.5.9 1.4 1.6 2.5 1.6s2.1-.6 2.5-1.6h19.3c.5.9 1.4 1.6 2.5 1.6s2.1-.6 2.5-1.6H391c.5.9 1.4 1.6 2.5 1.6s2.1-.6 2.5-1.6h9.5v-2.4z"/>
        <circle cx="71.1" cy="243.7" r="1.6"/>
        <circle cx="75.4" cy="248" r="1.6"/>
        <circle cx="79.7" cy="252.3" r="1.6"/>
        <circle cx="84" cy="256.6" r="1.6"/>
        <circle cx="88.3" cy="260.9" r="1.6"/>
        <circle cx="92.6" cy="265.2" r="1.6"/>
        <circle cx="96.9" cy="269.5" r="1.6"/>
        <circle cx="101.2" cy="273.8" r="1.6"/>
        <circle cx="105.5" cy="278.1" r="1.6"/>
        <circle cx="354.1" cy="19.9" r="1.6"/>
        <circle cx="358.4" cy="24.2" r="1.6"/>
        <circle cx="362.7" cy="28.5" r="1.6"/>
        <circle cx="367" cy="32.8" r="1.6"/>
    </g>
</svg>
