<?xml version="1.0" encoding="utf-8"?>
<!-- Generator: Adobe Illustrator 18.1.1, SVG Export Plug-In . SVG Version: 6.00 Build 0)  -->
<svg version="1.1" xmlns="http://www.w3.org/2000/svg" xmlns:xlink="http://www.w3.org/1999/xlink" x="0px" y="0px"
	 viewBox="246.3 174.7 312.8 266.8" enable-background="new 246.3 174.7 312.8 266.8" xml:space="preserve">
<g id="Layer_4">
</g>
<g id="Layer_2">
	<g>
		<path fill="none" stroke="#C13A30" stroke-width="3" d="M429.9,409.3h52.9c0.7,0,1.4-0.3,1.9-0.8l8.9-8.9c0.5-0.5,0.8-1.2,0.8-1.9
			v-3.1c0-1.5-1.2-2.7-2.7-2.7l0,0c-2.4,0-3.6-2.9-1.9-4.6l8.7-8.7c0.5-0.5,0.8-1.2,0.8-1.9v-19.5c0-0.7-0.3-1.4-0.8-1.9l-9.1-9.1
			c-1.1-1.1-2.8-1.1-3.8,0l-5.6,5.6c-1.1,1.1-2.8,1.1-3.8,0l-1.2-1.2c-0.5-0.5-0.8-1.2-0.8-1.9V334c0-0.4-0.1-0.9-0.3-1.2
			l-33.5-64.5c-0.5-0.9-1.4-1.5-2.4-1.5h-12.9c-2,0-3.3-2-2.4-3.8l21.3-46.7c0.8-1.8-0.5-3.8-2.4-3.8h-31.1c-1.5,0-2.7-1.2-2.7-2.7
			v-9c0-0.7,0.3-1.4,0.8-1.9l10.3-10.3c0.5-0.5,0.8-1.2,0.8-1.9v-7.7c0-1.9-2-3.2-3.7-2.5l-25.7,10.8c-0.8,0.3-1.3,1-1.6,1.8
			l-15.9,57.4c-0.3,0.9,0,1.9,0.7,2.6l21.9,21.9c0.8,0.8,1,1.9,0.6,2.9l-7.6,18.6c-0.6,1.4,0.1,2.9,1.4,3.5l8.4,3.7
			c0.6,0.3,1.3,0.3,1.9,0.1l10.6-3.4c1.1-0.4,2.4,0.1,3,1.1l1.1,1.7c0.7,1,0.6,2.3-0.1,3.2l-3.8,4.7c-0.4,0.5-0.6,1.1-0.6,1.7v30.1
			c0,1.5-1.2,2.7-2.7,2.7h-6.6c-1.5,0-2.7,1.2-2.7,2.7v22.3c0,0.7-0.3,1.4-0.8,1.9l-13.4,13.4c-0.5,0.5-0.8,1.2-0.8,1.9v2.3
			c0,1.5,1.2,2.7,2.7,2.7h35.7c1.5,0,2.7,1.2,2.7,2.7v0.9c0,1.5-1.2,2.7-2.7,2.7h-17.7c-0.9,0-1.8,0.5-2.3,1.2l-12.8,20.1
			c-1.3,2.1,0.6,4.7,3,4l37-10.8C429.3,409.3,429.6,409.3,429.9,409.3z"/>
		<path fill="none" stroke="#C13A30" stroke-width="3" d="M338.4,304l18.7-15.2c1.8-1.5,4.4-1.3,6,0.3l13.6,13.6
			c0.8,0.8,1.3,2,1.3,3.2v3.7c0,2.5-2,4.5-4.5,4.5h-13.7c-1.2,0-2.3-0.5-3.2-1.3l0,0c-1.8-1.8-4.6-1.8-6.4,0l-0.1,0.1
			c-0.8,0.8-2,1.3-3.2,1.3h-5.7c-2.5,0-4.5-2-4.5-4.5v-2.2C336.8,306.2,337.4,304.9,338.4,304z"/>
	</g>
	<g>
		<line fill="none" stroke="#74231D" stroke-width="4" x1="459" y1="380.3" x2="472" y2="393.3"/>
		<line fill="none" stroke="#74231D" stroke-width="4" x1="459" y1="393.3" x2="472" y2="380.3"/>
	</g>
	<g>
		<path fill="none" stroke="#E2E2E2" stroke-width="3" stroke-linecap="round" d="M296.8,236.6c0,4.6-3.7,8.3-8.3,8.3"/>
		<path fill="none" stroke="#E2E2E2" stroke-width="3" stroke-linecap="round" d="M313.3,236.6c0,4.6-3.7,8.3-8.3,8.3
			s-8.3-3.7-8.3-8.3"/>
		<path fill="none" stroke="#E2E2E2" stroke-width="3" stroke-linecap="round" d="M329.8,236.6c0,4.6-3.7,8.3-8.3,8.3
			c-4.6,0-8.3-3.7-8.3-8.3"/>
		<path fill="none" stroke="#E2E2E2" stroke-width="3" stroke-linecap="round" d="M338.1,244.9c-4.6,0-8.3-3.7-8.3-8.3"/>
	</g>
	<g>
		<path fill="none" stroke="#E2E2E2" stroke-width="3" stroke-linecap="round" d="M476.1,431.8c0,4.6-3.7,8.3-8.3,8.3"/>
		<path fill="none" stroke="#E2E2E2" stroke-width="3" stroke-linecap="round" d="M492.6,431.8c0,4.6-3.7,8.3-8.3,8.3
			c-4.6,0-8.3-3.7-8.3-8.3"/>
		<path fill="none" stroke="#E2E2E2" stroke-width="3" stroke-linecap="round" d="M509.1,431.8c0,4.6-3.7,8.3-8.3,8.3
			c-4.6,0-8.3-3.7-8.3-8.3"/>
		<path fill="none" stroke="#E2E2E2" stroke-width="3" stroke-linecap="round" d="M517.4,440c-4.6,0-8.3-3.7-8.3-8.3"/>
	</g>
	<g>
		<path fill="none" stroke="#E2E2E2" stroke-width="3" stroke-linecap="round" d="M516.4,246.8c0,4.6-3.7,8.3-8.3,8.3"/>
		<path fill="none" stroke="#E2E2E2" stroke-width="3" stroke-linecap="round" d="M532.9,246.8c0,4.6-3.7,8.3-8.3,8.3
			c-4.6,0-8.3-3.7-8.3-8.3"/>
		<path fill="none" stroke="#E2E2E2" stroke-width="3" stroke-linecap="round" d="M549.4,246.8c0,4.6-3.7,8.3-8.3,8.3
			s-8.3-3.7-8.3-8.3"/>
		<path fill="none" stroke="#E2E2E2" stroke-width="3" stroke-linecap="round" d="M557.6,255.1c-4.6,0-8.3-3.7-8.3-8.3"/>
	</g>
	<g>
		<path fill="none" stroke="#E2E2E2" stroke-width="3" stroke-linecap="round" d="M496.8,285.3c0,4.6-3.7,8.3-8.3,8.3"/>
		<path fill="none" stroke="#E2E2E2" stroke-width="3" stroke-linecap="round" d="M513.3,285.3c0,4.6-3.7,8.3-8.3,8.3
			c-4.6,0-8.3-3.7-8.3-8.3"/>
		<path fill="none" stroke="#E2E2E2" stroke-width="3" stroke-linecap="round" d="M521.5,293.6c-4.6,0-8.3-3.7-8.3-8.3"/>
	</g>
	<g>
		<path fill="none" stroke="#E2E2E2" stroke-width="3" stroke-linecap="round" d="M309,368.2c0,4.6-3.7,8.3-8.3,8.3"/>
		<path fill="none" stroke="#E2E2E2" stroke-width="3" stroke-linecap="round" d="M325.5,368.2c0,4.6-3.7,8.3-8.3,8.3
			c-4.6,0-8.3-3.7-8.3-8.3"/>
		<path fill="none" stroke="#E2E2E2" stroke-width="3" stroke-linecap="round" d="M333.8,376.4c-4.6,0-8.3-3.7-8.3-8.3"/>
	</g>
	<g>
		<g>
			<path fill="none" stroke="#E2E2E2" stroke-width="3" stroke-linecap="round" d="M289.1,209.2c0,4.6-3.7,8.3-8.3,8.3
				c-4.6,0-8.3-3.7-8.3-8.3"/>
		</g>
		<g>
			<path fill="none" stroke="#E2E2E2" stroke-width="3" stroke-linecap="round" d="M305.6,209.2c0,4.6-3.7,8.3-8.3,8.3
				c-4.6,0-8.3-3.7-8.3-8.3"/>
		</g>
		<g>
			<path fill="none" stroke="#E2E2E2" stroke-width="3" stroke-linecap="round" d="M272.6,209.2c0,4.6-3.7,8.3-8.3,8.3
				c-4.6,0-8.3-3.7-8.3-8.3"/>
		</g>
		<g>
			<path fill="none" stroke="#E2E2E2" stroke-width="3" stroke-linecap="round" d="M256.1,209.2c0,4.6-3.7,8.3-8.3,8.3"/>
		</g>
		<g>
			<path fill="none" stroke="#E2E2E2" stroke-width="3" stroke-linecap="round" d="M313.9,217.5c-4.6,0-8.3-3.7-8.3-8.3"/>
		</g>
	</g>
</g>
</svg>
