<?xml version="1.0" encoding="utf-8"?>
<!-- Generator: Adobe Illustrator 18.1.1, SVG Export Plug-In . SVG Version: 6.00 Build 0)  -->
<svg version="1.1" id="Layer_1" xmlns="http://www.w3.org/2000/svg" xmlns:xlink="http://www.w3.org/1999/xlink" x="0px" y="0px"
	 viewBox="0 0 72.9 9.9" enable-background="new 0 0 72.9 9.9" xml:space="preserve">
<g>
	<polygon fill="#C13A30" points="72.9,2.1 70.8,0 67.9,2.8 65.1,0 63,2.1 65.8,4.9 63,7.8 65.1,9.9 67.9,7.1 70.8,9.9 72.9,7.8 
		70.1,4.9 	"/>
	<polygon fill="#C13A30" points="49.8,0 46.9,2.8 44.1,0 42,2.1 44.8,4.9 42,7.8 44.1,9.9 46.9,7.1 49.8,9.9 51.9,7.8 49.1,4.9 
		51.9,2.1 	"/>
	<polygon fill="#C13A30" points="28.8,0 25.9,2.8 23.1,0 21,2.1 23.8,4.9 21,7.8 23.1,9.9 25.9,7.1 28.8,9.9 30.9,7.8 28.1,4.9 
		30.9,2.1 	"/>
	<polygon fill="#C13A30" points="7.8,0 4.9,2.8 2.1,0 0,2.1 2.8,4.9 0,7.8 2.1,9.9 4.9,7.1 7.8,9.9 9.9,7.8 7.1,4.9 9.9,2.1 	"/>
</g>
</svg>
