<?xml version="1.0" encoding="utf-8"?>
<!-- Generator: Adobe Illustrator 18.1.1, SVG Export Plug-In . SVG Version: 6.00 Build 0)  -->
<svg version="1.1" id="Layer_1" xmlns="http://www.w3.org/2000/svg" xmlns:xlink="http://www.w3.org/1999/xlink" x="0px" y="0px"
	 viewBox="0 0 74 11" enable-background="new 0 0 74 11" xml:space="preserve">
<g>
	<polygon fill="#C13A30" points="53,4 49,4 49,0 46,0 46,4 42,4 42,7 46,7 46,11 49,11 49,7 53,7 	"/>
	<polygon fill="#C13A30" points="32,4 28,4 28,0 25,0 25,4 21,4 21,7 25,7 25,11 28,11 28,7 32,7 	"/>
	<polygon fill="#C13A30" points="11,4 7,4 7,0 4,0 4,4 0,4 0,7 4,7 4,11 7,11 7,7 11,7 	"/>
	<polygon fill="#C13A30" points="74,4 70,4 70,0 67,0 67,4 63,4 63,7 67,7 67,11 70,11 70,7 74,7 	"/>
</g>
</svg>
