<?xml version="1.0" encoding="utf-8"?>
<!-- Generator: Adobe Illustrator 18.1.1, SVG Export Plug-In . SVG Version: 6.00 Build 0)  -->
<svg version="1.1" id="Layer_1" xmlns="http://www.w3.org/2000/svg" xmlns:xlink="http://www.w3.org/1999/xlink" x="0px" y="0px"
	 viewBox="0 0 90 7" enable-background="new 0 0 90 7" xml:space="preserve">
<path fill="#C13A30" d="M90,2.1H77.9C77.4,0.9,76.2,0,74.7,0s-2.6,0.9-3.2,2.1H48.9C48.4,0.9,47.2,0,45.7,0s-2.6,0.9-3.2,2.1H18.9
	C18.4,0.9,17.2,0,15.7,0s-2.6,0.9-3.2,2.1H0v3h12.6C13.2,6.2,14.4,7,15.7,7s2.5-0.8,3.1-1.9h23.8C43.2,6.2,44.4,7,45.7,7
	s2.5-0.8,3.1-1.9h22.8C72.2,6.2,73.4,7,74.7,7s2.5-0.8,3.1-1.9H90V2.1z"/>
</svg>
